<?xml version="1.0" encoding="utf-8"?>
<!-- Svg Vector Icons : http://www.onlinewebfonts.com/icon -->
<!DOCTYPE svg PUBLIC "-//W3C//DTD SVG 1.1//EN" "http://www.w3.org/Graphics/SVG/1.1/DTD/svg11.dtd">
<svg version="1.1" xmlns="http://www.w3.org/2000/svg" xmlns:xlink="http://www.w3.org/1999/xlink" x="0px" y="0px" viewBox="0 0 1000 1000" enable-background="new 0 0 1000 1000" xml:space="preserve">
<metadata> Svg Vector Icons : http://www.onlinewebfonts.com/icon </metadata>
<g><g><g><g><path d="M477.4,372.9c0,57.7-46.8,104.5-104.5,104.5H114.5C56.8,477.4,10,430.6,10,372.9V114.5C10,56.8,56.8,10,114.5,10h258.4c57.7,0,104.5,46.8,104.5,104.5L477.4,372.9L477.4,372.9z M417.1,114.5c0-24.4-19.8-44.2-44.2-44.2H114.5c-24.4,0-44.2,19.8-44.2,44.2v258.4c0,24.4,19.8,44.2,44.2,44.2h258.4c24.4,0,44.2-19.8,44.2-44.2L417.1,114.5L417.1,114.5z"/></g><g><g><path d="M130.6,251.2c-8.3,0-15.1-6.7-15.1-15.1V209c0-41.8,27.9-78.4,66.2-78.4h93.9c8.3,0,15.1,6.7,15.1,15.1s-6.8,15.1-15.1,15.1h-93.9c-23.5,0-36,25.9-36,48.2v27.1C145.7,244.5,138.9,251.2,130.6,251.2z"/></g><g><path d="M124.9,303c-3.9,0-7.9-1.7-10.7-4.4c-2.7-2.8-4.4-6.8-4.4-10.7c0-3.9,1.6-7.8,4.4-10.7c5.7-5.6,15.7-5.6,21.4,0c2.7,2.9,4.4,6.8,4.4,10.7c0,3.9-1.7,7.9-4.4,10.5C132.7,301.3,128.8,303,124.9,303z"/></g></g><g><path d="M990,372.9c0,57.7-46.8,104.5-104.5,104.5H627.1c-57.7,0-104.5-46.8-104.5-104.5V114.5C522.6,56.8,569.4,10,627.1,10h258.4C943.2,10,990,56.8,990,114.5L990,372.9L990,372.9z M929.7,114.5c0-24.4-19.8-44.2-44.2-44.2H627.1c-24.4,0-44.2,19.8-44.2,44.2v258.4c0,24.4,19.8,44.2,44.2,44.2h258.4c24.4,0,44.2-19.8,44.2-44.2L929.7,114.5L929.7,114.5z"/></g><g><path d="M477.4,885.5c0,57.7-46.8,104.5-104.5,104.5H114.5C56.8,990,10,943.2,10,885.5V627.1c0-57.7,46.8-104.5,104.5-104.5h258.4c57.7,0,104.5,46.8,104.5,104.5L477.4,885.5L477.4,885.5z M417.1,627.1c0-24.4-19.8-44.2-44.2-44.2H114.5c-24.4,0-44.2,19.8-44.2,44.2v258.4c0,24.4,19.8,44.2,44.2,44.2h258.4c24.4,0,44.2-19.8,44.2-44.2L417.1,627.1L417.1,627.1z"/></g><g><path d="M990,885.5c0,57.7-46.8,104.5-104.5,104.5H627.1c-57.7,0-104.5-46.8-104.5-104.5V627.1c0-57.7,46.8-104.5,104.5-104.5h258.4c57.7,0,104.5,46.8,104.5,104.5L990,885.5L990,885.5z M929.7,627.1c0-24.4-19.8-44.2-44.2-44.2H627.1c-24.4,0-44.2,19.8-44.2,44.2v258.4c0,24.4,19.8,44.2,44.2,44.2h258.4c24.4,0,44.2-19.8,44.2-44.2L929.7,627.1L929.7,627.1z"/></g></g></g><g></g><g></g><g></g><g></g><g></g><g></g><g></g><g></g><g></g><g></g><g></g><g></g><g></g><g></g><g></g></g>
</svg>